<svg xmlns="http://www.w3.org/2000/svg" viewBox="0 0 128 128" fill="none"><defs><linearGradient id="cloud" x1="0" y1="0" x2="0" y2="1"><stop stop-color="#f8fbff"/><stop offset="1" stop-color="#d5e5f7"/></linearGradient><radialGradient id="hail"><stop stop-color="white"/><stop offset=".55" stop-color="#d8f2ff"/><stop offset="1" stop-color="#31a9fa"/></radialGradient></defs><path data-part="drop" d="M34 92 C31 97 28 100 28 103 A6 6 0 0 0 40 103 C40 100 37 97 34 92Z" fill="#0ca5f7"/><g data-part="snowflake" transform="translate(54 102)" fill="none" stroke="#09a5f5" stroke-width="1.7" stroke-linecap="round"><path transform="rotate(0)" d="M0 0V-10M0-5L-3-8M0-5L3-8"/><path transform="rotate(60)" d="M0 0V-10M0-5L-3-8M0-5L3-8"/><path transform="rotate(120)" d="M0 0V-10M0-5L-3-8M0-5L3-8"/><path transform="rotate(180)" d="M0 0V-10M0-5L-3-8M0-5L3-8"/><path transform="rotate(240)" d="M0 0V-10M0-5L-3-8M0-5L3-8"/><path transform="rotate(300)" d="M0 0V-10M0-5L-3-8M0-5L3-8"/></g><path data-part="drop" d="M74 92 C71 97 68 100 68 103 A6 6 0 0 0 80 103 C80 100 77 97 74 92Z" fill="#0ca5f7"/><g data-part="snowflake" transform="translate(94 102)" fill="none" stroke="#09a5f5" stroke-width="1.7" stroke-linecap="round"><path transform="rotate(0)" d="M0 0V-10M0-5L-3-8M0-5L3-8"/><path transform="rotate(60)" d="M0 0V-10M0-5L-3-8M0-5L3-8"/><path transform="rotate(120)" d="M0 0V-10M0-5L-3-8M0-5L3-8"/><path transform="rotate(180)" d="M0 0V-10M0-5L-3-8M0-5L3-8"/><path transform="rotate(240)" d="M0 0V-10M0-5L-3-8M0-5L3-8"/><path transform="rotate(300)" d="M0 0V-10M0-5L-3-8M0-5L3-8"/></g></svg>
